<svg width="24" height="24"><path d="M 0.19237067166469934 3.28252161371105 C 6.597288222794325 4.0352346816371245, 10.731841695922169 0.7555088764688467, 21.174030378234537 1.908019632327405 M 1.8110013550438815 2.9322624246660167 C 6.270260983242526 2.8402216067942745, 11.767217641758338 1.3075606100976325, 22.35821939325448 1.9243079685257483 M 22.06451865001548 2.6204912218932845 C 22.583524081885074 8.226420317015155, 20.058391447687992 18.232118906315115, 22.008717465906066 22.992532306502483 M 22.83200821221678 1.3037719661669973 C 23.014710108398084 9.336879030858459, 22.50151848553269 16.672756512895198, 21.51276470403387 21.829201531876063 M 23.550790424211822 20.055514912233964 C 16.11766949125823 21.45106717865889, 10.139982939690523 20.072819448473666, 0.5601216413530654 23.50030267118124 M 21.566285483155916 22.383763826593977 C 16.242147680557917 22.517012333141764, 10.460669143248094 23.00460737997672, 2.5640271358827524 22.644627816115232 M 3.21319996272158 23.450662547246644 C 3.7603959953112636 15.073404718366236, 1.4060869465810313 8.584816551091848, 1.8577941096114925 3.138476376867046 M 1.9084873537500715 22.853089274267255 C 2.0875660265690916 14.891771740175766, 2.4106682709782277 6.967284472519024, 2.4194348470809177 2.4394970652314805"></path><path d="M 7.220626524038658 10.358816299084962 C 8.15618390242315 11.407829984435457, 10.036819718404411 14.348828119519952, 12.241846762598334 17.65448344399681 M 6.922702673658938 9.947126640876157 C 8.350317141349791 11.766668525690077, 9.972804823711474 13.869329011348775, 12.224238708954836 16.428223888356413" style="stroke-width: 2.5; display: none;"></path><path d="M 12.80499908195462 16.734245379427705 C 18.56951790333295 11.747196832395659, 22.0583988462897 5.214177372126402, 29.28851047089071 -6.899582888530206 M 11.586333121065696 16.305037072400612 C 17.076834653326795 10.643352321981066, 22.68409180512161 2.7149263715546486, 28.21274236691789 -5.203254629186731" style="stroke-width: 2.5; display: none;"></path></svg>
