<svg width="24" height="24"><path d="M 0.7016190581789781 2.6450850261655248 C 7.65439393731415 0.3713041897480265, 11.340453875820174 0.8051463772545278, 21.843560595274365 0.0863348368070147 M 1.3573248739674497 2.703332615715847 C 6.414872225503759 1.6642906596234472, 11.409222344955788 1.7982067242064659, 22.855163343153123 1.9054844915963676 M 21.806403220079417 1.1211232405506948 C 21.485323825774906 8.07055869608014, 20.564137854937435 12.590422564870629, 21.10199672529376 21.33166454340463 M 21.218375638240186 2.4942457105080003 C 21.733457334354227 6.324590839585699, 21.595292059959387 10.693215944186136, 21.545822131344313 21.323236096722333 M 22.76193527018082 22.452075224009004 C 18.499381975944864 21.987631098523842, 13.606154683220929 20.71270394992927, 0.9962501373115389 20.29465388101767 M 21.40236529301801 22.595881651609584 C 16.884816202346023 22.66168194843778, 11.614442437794175 21.933281793197235, 2.795095257021559 21.73225851508757 M 3.2156730067951624 23.751503996494023 C -0.01096068668656014 13.655841573446944, 2.34153209047257 5.162065433413139, 3.5104841718691846 3.916865375402338 M 2.243355162521609 21.748913177499528 C 1.834632471613035 13.808201435197484, 1.3156103527393503 6.847195221812111, 1.1735437530340525 1.6106688346025613"></path><path d="M 6.673894974787576 9.004910538232616 C 7.416238668962661 11.88841406386796, 9.444790984764335 12.320279106462824, 12.209911226093595 17.286472072342526 M 7.596226076650075 9.624431577621248 C 8.039323883824471 11.144515014825458, 9.36236193301353 13.029692288625707, 11.790233200817587 17.042690198823127" style="stroke-width: 2.5;"></path><path d="M 12.074918096742927 16.45378871010019 C 17.720305572725156 10.576648352254242, 22.698303305408515 -0.3655050771265964, 29.471968428063683 -3.1468189064311707 M 12.98385600294056 17.316698186074927 C 18.594423308533102 8.734407227358219, 24.400814757272464 -0.11286377718135521, 28.181353013121235 -5.344889216826325" style="stroke-width: 2.5;"></path></svg>
