<svg width="72" height="72"><path d="M 25.842963664012068 5.452463983457481 C 32.18122663230457 3.1124381546921214, 42.29774183049888 3.3809333251251643, 49.12969518706199 5.994848666477871 C 55.9616485436251 8.608764007830578, 63.45721247691369 15.037738744388932, 66.83468380339075 21.135956031573723 C 70.2121551298678 27.234173318758515, 71.35024300085655 35.886189030156615, 69.39452314592432 42.58415238958663 C 67.4388032909921 49.28211574901664, 60.892372068524836 57.17771498489478, 55.10036467379739 61.32373618815379 C 49.30835727906994 65.4697573914128, 41.81701521347524 67.66543474719653, 34.64247877755961 67.46027960914071 C 27.46794234164398 67.2551244710849, 17.438491821442767 64.76623359520391, 12.053146058303614 60.092805359818925 C 6.6678002951644615 55.419377124433936, 2.89026890352172 46.50132740788484, 2.3304041987246933 39.41971019683077 C 1.7705394939276666 32.338092985776704, 3.6454082335295626 23.483341906587025, 8.693957829521455 17.603102093494545 C 13.742507425513349 11.722862280402065, 27.74552853524353 6.391586650262688, 32.62170177467605 4.1382713182758835 C 37.497875014108565 1.8849559862890781, 37.808719023473245 3.4911182092602964, 37.95099726611657 4.083210101573712 M 50.19924501878159 8.28991437928438 C 56.49828185587651 10.996880107433315, 65.12620371098357 17.21688346604767, 67.88041530744437 23.293094016368954 C 70.63462690390516 29.36930456669024, 68.90689859189601 37.89078031009509, 66.72451459754632 44.747177681212094 C 64.54213060319663 51.6035750523291, 60.82546898689224 60.606115288873255, 54.786111341346235 64.43147824307097 C 48.74675369580023 68.25684119726868, 37.53299465621498 68.72450607314117, 30.48836872427028 67.69935540639838 C 23.443742792325583 66.6742047396556, 17.357077756236144 63.194351965020246, 12.51835574967804 58.28057424261425 C 7.679633743119936 53.366796520208254, 1.9688847821246536 45.02352819167835, 1.4560366849216564 38.216689071962406 C 0.9431885877186593 31.409849952246457, 4.761063297266138 23.004082736996743, 9.441267166460058 17.439539524318565 C 14.121471035653979 11.874996311640388, 22.473612999146283 6.696429351352678, 29.53725990008518 4.829429795893343 C 36.600906801024074 2.962430240434009, 48.24634142102523 5.524406694207175, 51.82314857209344 6.237542191562557 C 55.399955723161646 6.950677688917939, 51.262025531179155 8.287284915358617, 50.998102806494416 9.108242780025638"></path></svg>
