<svg width="160" height="30"><path d="M 2.524067454197774 2.6762285614657797 C 50.93765864277425 3.229383446718294, 101.08428972046617 0.40959044424843327, 159.94006477111438 2.343196016622665 M 1.9502026745118313 2.9242174267248062 C 51.765969893601934 2.4300976363336066, 101.01470684296032 2.2532086684276322, 157.16943409101373 2.3852709841002144 M 157.01181278767808 0.25799033206597866 C 157.01857748945096 13.028419521579838, 159.44761016100583 20.33061562993299, 158.89745463701107 27.264505010128534 M 157.95859590318557 2.446489438632501 C 158.2712956401983 12.277661079846684, 157.38156248269743 22.709883697913547, 158.63780448935088 28.32701363854602 M 159.56042978385926 27.967271985060552 C 96.59475275200572 26.2445569522461, 37.67917017994229 26.99742982702168, 3.6903133257700915 26.192375896761284 M 157.52759000265735 28.4386464356817 C 98.43268304808986 28.280618427657455, 38.90819697227449 26.567344661652132, 2.146412960625216 28.585975336603777 M 1.3470681779982892 26.485488407143677 C 3.2975049478946006 19.82743055178078, 1.9229005000122972 15.642063014129276, 2.111840485718015 2.668053216119601 M 2.5089991983493722 27.906265761189992 C 1.2952214041331338 22.64525029487969, 1.3834462947178676 16.458005852812732, 2.4155976744524414 2.764301852884935"></path></svg>
