<svg width="24" height="24"><path d="M 11.500129402167678 1.0234685176354965 C 13.775409270456617 0.7661498798619502, 17.175246199193683 2.0390036841814645, 19.07269814920703 3.4896458625832834 C 20.97015009922038 4.940288040985102, 22.48933738246404 7.6439910954578885, 22.884841102247766 9.727321588046411 C 23.28034482203149 11.810652080634934, 22.704001799905654 14.046535691556768, 21.445720467909382 15.989628818114417 C 20.18743913591311 17.932721944672068, 17.587367306987698 20.574361364642396, 15.33515311027014 21.385880347392305 C 13.082938913552582 22.197399330142215, 9.822375996069523 21.5843902302062, 7.932435287604028 20.858742714613864 C 6.042494579138532 20.13309519902153, 5.063523085409824 18.913626229277227, 3.9955088594771677 17.03199525383829 C 2.9274946335445113 15.150364278399353, 1.2217116046530991 11.540094961326947, 1.524349932008091 9.568956861980245 C 1.826988259363083 7.597818762633544, 3.9276145254307053 6.584441085142619, 5.8113388236071195 5.205166657758082 C 7.695063121783534 3.8258922303735448, 11.63557514674028 1.7569534999898617, 12.826695721066578 1.2933102976730204 C 14.017816295392876 0.8296670953561791, 13.070969258138465 2.182675581763341, 12.958062269564905 2.423307443857034 M 9.227782767132904 2.895322191139611 C 11.0790503387045 2.081497744934233, 12.311690308384506 3.163191235198668, 14.351550781971198 3.812363554022367 C 16.39141125555789 4.461535872846066, 19.93499352833651 5.325326771921603, 21.466945608653056 6.7903561040818055 C 22.998897688969603 8.255385436242008, 24.19522537572827 10.682977501187054, 23.54326326387048 12.602539546983582 C 22.891301152012687 14.52210159278011, 19.593831374326246 16.582245461582403, 17.555172937506303 18.307728378860975 C 15.51651450068636 20.033211296139548, 13.32038612584548 22.720724760953253, 11.311312642950824 22.95543705065502 C 9.302239160056168 23.19014934035679, 6.879230140434793 21.058803273544335, 5.500732040138361 19.71600211707159 C 4.122233939841929 18.373200960598844, 3.6580275683521477 16.850935277395454, 3.0403240411722336 14.89863011181855 C 2.4226205139923196 12.946324946241646, 1.0976562352913453 10.011897895966676, 1.794510877058876 8.002171123610163 C 2.4913655188264068 5.992444351253649, 6.322259831480445 3.521195494227021, 7.221451891777418 2.840269477679465 C 8.12064395207439 2.159343461131909, 6.862521393195793 3.791403190940872, 7.189663238840713 3.916615024324825"></path><path d="M 11.628171760208552 6.946617445607023 C 12.721924600839687 6.446599981616329, 13.257804852413523 6.16675683333873, 14.048140802076514 6.525442940193637 C 14.838476751739504 6.8841290470485434, 15.782982369203319 8.025122581457014, 16.370187458186496 9.098734086736464 C 16.957392547169672 10.172345592015914, 17.885598525082774 11.630289178510976, 17.571371335975574 12.967111971870336 C 17.257144146868374 14.303934765229696, 15.6708068770179 16.389155167640748, 14.484824323543293 17.119670846892628 C 13.298841770068686 17.85018652614451, 11.468160131051706 17.74465784878001, 10.455476015127932 17.350206047381615 C 9.442791899204158 16.95575424598322, 9.055674247617729 15.532070092128949, 8.408719628000652 14.752960038502257 C 7.761765008383576 13.973849984875566, 6.589555104633158 13.573765571649059, 6.573748297425475 12.675545725621463 C 6.557941490217791 11.777325879593867, 7.489112272585758 10.345329346199614, 8.31387878475455 9.363640962336689 C 9.138645296923343 8.381952578473763, 10.61654120898612 7.341442690820848, 11.52234737043823 6.785415422443907 C 12.428153531890338 6.2293881540669656, 13.68220057599806 5.972883188605909, 13.748715753467206 6.027477352075043 M 9.017329524947748 7.363455252968897 C 9.99879881963404 6.62997412663428, 11.58559041048828 5.770791270445538, 12.642691096698469 6.078799657370721 C 13.699791782908658 6.386808044295903, 14.812286193489175 8.325673584656741, 15.359933642208889 9.211505574519991 C 15.907581090928602 10.097337564383242, 15.682375457765119 10.031330725288619, 15.928575789016751 11.393791596550223 C 16.174776120268383 12.756252467811827, 17.434992400618658 16.41217948539029, 16.837135629718684 17.38627080208961 C 16.23927885881871 18.360362118788927, 13.624287662380237 17.449869881498266, 12.34143516361691 17.23833949674614 C 11.058582664853585 17.026809111994012, 10.207508581819843 16.674668809421952, 9.140020637138726 16.117088493576848 C 8.072532692457608 15.559508177731745, 6.480174312228106 15.240832489435121, 5.936507495530212 13.892857601675521 C 5.392840678832318 12.544882713915921, 5.39000662915793 9.318964539424023, 5.878019736951358 8.029239167019249 C 6.366032844744786 6.739513794614474, 8.260141093284881 6.497307945248428, 8.864586142290781 6.154505367246872 C 9.469031191296681 5.811702789245317, 9.274016474333397 5.699166428866346, 9.50469003098676 5.972423699009917" class="filledPath" style="display: none;"></path></svg>
