<svg width="24" height="24"><path d="M 16.174580954173592 2.4382192398334936 C 18.21442344173571 3.3071215197070134, 20.48480918855578 5.874514056310561, 21.24612794180451 8.017260375510215 C 22.00744669505324 10.16000669470987, 21.447123665979344 13.12361527705667, 20.742493473665967 15.29469715503142 C 20.03786328135259 17.465779033006168, 18.483073412667743 20.023660624471038, 17.018346787924244 21.04375164335871 C 15.553620163180744 22.063842662246383, 14.134519537804216 21.85748030920799, 11.954133725204965 21.41524326835745 C 9.773747912605714 20.97300622750691, 5.579405796379311 19.735982797543365, 3.936031912328734 18.39032939825548 C 2.292658028278157 17.044675998967598, 2.003732079199857 15.427607007740184, 2.0938904209015003 13.341322872630148 C 2.1840487626031435 11.255038737520112, 3.1332821704827545 7.8020964570355575, 4.476981962538593 5.8726245875952605 C 5.820681754594432 3.9431527181549635, 7.89654239631251 2.2010724627810965, 10.15608917323653 1.7644916559883654 C 12.415635950160551 1.3279108491956344, 16.426781578369273 2.699600209723104, 18.034262624082714 3.2531397468388743 C 19.641743669796156 3.8066792839546446, 20.097312465798446 4.816594903934878, 19.800975447517175 5.085728878682987 M 15.851121594793035 1.5069470323502845 C 18.102944581236002 1.5434221196002853, 20.01306120684301 3.64409432172243, 20.90145104897595 5.575143443338885 C 21.78984089110889 7.506192564955341, 21.40094097697558 10.842646115624614, 21.181460647590683 13.093241762049018 C 20.961980318205786 15.343837408473423, 20.984350048216218 17.88271386587081, 19.58456907266657 19.078717321885307 C 18.184788097116925 20.274720777899805, 14.845832498045516 20.100547770784775, 12.782774794292799 20.26926249813601 C 10.719717090540081 20.43797722548724, 9.203368902708359 21.343321439340677, 7.206222850150265 20.091005685992705 C 5.209076797592171 18.838689932644733, 1.5141588060131421 14.773312823514432, 0.7998984789442307 12.755367978048175 C 0.0856381518753192 10.737423132581918, 1.768164067672738 9.570632529342006, 2.920660887736796 7.983336613195161 C 4.073157707800854 6.396040697048315, 5.5945437632096 4.181202699185484, 7.714879399328579 3.2315924811671017 C 9.835215035447558 2.2819822631487194, 14.653403202747953 2.579058629532749, 15.642674704450672 2.285675305084867 C 16.63194620615339 1.992291980636985, 14.007570962541097 1.0349842332125192, 13.65050840954489 1.4712925344798098"></path><path d="M 12.054594712712147 7.296380612979266 C 13.059937704959783 7.173403128812502, 14.78544295922849 6.648547903905746, 15.695551537156573 7.473359937947675 C 16.605660115084657 8.298171971989605, 17.323139676688935 10.999666369287883, 17.51524618028064 12.245252817230844 C 17.707352683872347 13.490839265173804, 17.361296193564186 14.020690318593772, 16.848190558706804 14.946878625605432 C 16.335084923849422 15.873066932617093, 15.733057951250288 17.487762099414603, 14.436612371136354 17.802382659300804 C 13.14016679102242 18.117003219187005, 10.305170116129748 17.29146965920621, 9.069517078023198 16.834601984922635 C 7.833864039916648 16.37773431063906, 7.2250095285059555 16.216126100552778, 7.022694142497053 15.061176613599358 C 6.82037875648815 13.906227126645936, 7.483543025757697 11.208418192073925, 7.855624761969784 9.904905063202108 C 8.22770649818187 8.601391934330291, 8.18782887267414 7.767505279293996, 9.255184559769571 7.2400978403684535 C 10.322540246865001 6.712690401442911, 13.461092790172348 6.691005018703741, 14.259758884542363 6.740460429648857 C 15.058424978912377 6.789915840593972, 14.084963839278885 7.481397474568273, 14.04718112598966 7.536830306039144 M 14.083685996426683 6.228536362974352 C 15.25236856681428 6.671924267070913, 18.030369398310242 7.32425221841774, 18.260818914518644 8.61124839820056 C 18.491268430727047 9.89824457798338, 16.22031868492875 12.456407902417267, 15.466383093677102 13.950513441671275 C 14.712447502425453 15.444618980925283, 14.45661383459276 17.285750495487104, 13.737205367008755 17.575881633724606 C 13.01779689942475 17.866012771962108, 12.244869537292018 15.821454778418564, 11.149932288173074 15.691300271096278 C 10.05499503905413 15.561145763773991, 7.845039811900843 17.200644027951615, 7.167581872295093 16.794954589790883 C 6.490123932689343 16.389265151630152, 7.076281591966419 14.483238514372077, 7.085184650538575 13.257163642131893 C 7.094087709110731 12.031088769891708, 6.541791404918442 10.546315447386394, 7.221000223728027 9.43850535634978 C 7.900209042537613 8.330695265313164, 9.937304548735714 7.194315962407262, 11.16043756339609 6.610303095912202 C 12.383570578056467 6.026290229417142, 14.114176890437188 5.817365774015266, 14.559798311690292 5.93442815737942 C 15.005419732943396 6.051490540743575, 13.978798337315252 7.18979156404286, 13.834166090914719 7.31267739609713" class="filledPath"></path></svg>
