<svg width="460" height="40"><path d="M 15.75162276214456 18.942685425652428 C 170.48904391778404 15.881482132656345, 322.64011687680755 19.229454344556174, 445.5147218178505 19.009141674806543 M 15.26114725752841 19.089215001559957 C 169.09828734024615 17.742365710916378, 325.1414865666142 16.806184182591636, 445.30045520882186 20.101811601471315" class="bar"></path><g style="transform: translateX(0px);"><path d="M 14.241524707737263 7.427745284363533 C 16.884562873130648 6.764648834254883, 19.384662745023924 6.802656127493352, 21.6870154720299 8.440029564436761 C 23.989368199035873 10.077403001380171, 27.209777522370064 14.357778080150188, 28.055641069773113 17.25198590602399 C 28.901504617176162 20.14619373189779, 28.020046534827955 23.309873235404456, 26.762196756448184 25.805276519679566 C 25.504346978068412 28.300679803954676, 22.93570881881903 30.944075938775388, 20.508542399494495 32.22440561167464 C 18.08137598016996 33.5047352845739, 14.997599727327737 34.233030547785255, 12.199198240500973 33.48725455707509 C 9.400796753674209 32.741478566364925, 5.443799804045734 30.03386906353995, 3.7181334785339164 27.749749667413646 C 1.9924671530220985 25.465630271287342, 1.668448045709771 22.591429908107965, 1.8452002874300657 19.782538180317264 C 2.02195252915036 16.973646452526562, 2.666457091482364 13.071675079060293, 4.778646928855684 10.89639930066943 C 6.890836766229004 8.721123522278566, 12.365907219439144 7.409229992612859, 14.518339311669985 6.730883509972077 C 16.670771403900826 6.0525370273312955, 17.55857288598841 6.55964768119025, 17.693239482240735 6.826320404824738 M 15.213465734517223 8.031832384791784 C 17.865842610319145 7.661941160932377, 20.571450356596685 7.364479037226089, 22.539844737483456 9.068510587661121 C 24.508239118370227 10.772542138096155, 26.107436037484597 15.14622284090956, 27.02383201983784 18.25602168740198 C 27.940228002191084 21.365820533894397, 29.400181562377604 25.4805054377383, 28.038220631602925 27.727303666615633 C 26.676259700828247 29.974101895492964, 21.809689194641106 30.88690147791318, 18.85206643518978 31.73681106066596 C 15.894443675738454 32.58672064341874, 12.751279230665105 33.72801752924741, 10.29248407489497 32.8267611631323 C 7.833688919124836 31.9255047970172, 5.481486902932537 28.75075052219846, 4.099295500568976 26.329272863975344 C 2.7171040982054153 23.90779520575223, 1.6139074433889657 21.27270063343974, 1.999335660713605 18.297895213793606 C 2.3847638780382443 15.323089794147473, 4.099169024171793 10.203428850762883, 6.411864804516812 8.480440346098543 C 8.72456058486183 6.757451841434205, 14.271893553508377 8.306679818999235, 15.87551034278372 7.959964185807571 C 17.479127132059062 7.613248552615906, 15.942316921417804 6.434917244105011, 16.033565540168865 6.400146546948555" class="knob" style="touch-action: none;"></path></g></svg>
