<svg width="148.15625" height="48"><path d="M 2.7542343744195152 1.4590808146609566 C 36.726303182459844 1.6833844036908365, 70.2708753678573 3.6676238335948774, 105.00990000137092 1.0019851975576115 M 2.6933098233172217 1.5562438196208785 C 35.09252925858138 3.195410094084367, 68.66845145932953 3.6730833024951233, 104.04903970617725 2.2955180692807433 M 104.92102013177576 1.8915457312346264 C 105.8915449042847 19.914486576273326, 102.81212048113122 35.26347300090508, 102.1883657232129 44.97483785448745 M 103.68419452607142 2.651895899607129 C 104.00091934072836 18.65303616988431, 103.35348864918882 34.73732869669543, 104.77420007506697 45.39904603044298 M 105.70069680359053 45.96678821168399 C 62.840650447341226 44.46604862343588, 26.144233573259108 46.43103535364936, 2.8764824219697402 47.19234927724279 M 104.29779066349793 46.389117322955954 C 63.94820205771834 46.4825838824151, 24.083838397218813 45.49231058241433, 2.075098693397242 45.748688943139896 M 3.2065025297666443 45.84860137972309 C 3.4752991701817995 37.70049750666899, 0.709703065112723 25.495475773602085, 3.0464357706426863 2.5179896582785624 M 2.8078562541008742 45.38410619733508 C 1.0513037542551928 36.76864159518417, 1.9340619395895295 26.611472464820746, 1.066613751770527 1.1711787705749428"></path><path d="M 105.9554558479061 1.737251082939987 C 110.67971330534633 3.474903490352037, 121.42514750160342 3.0014984464293923, 134.56485929127956 1.6579311626923658 M 103.79697260105368 1.7861836882777986 C 111.63773781900476 2.3554792645454934, 120.32180063029486 1.3588472818666268, 133.01585664093855 1.5984655453404284 M 133.69722374786303 2.9169847887796196 C 133.69686014154553 19.927900723341388, 133.95543445931543 35.97181803086631, 135.55725436409355 47.0272237810896 M 134.51182523510053 2.243657447611256 C 134.5019798146349 19.84265736752958, 133.20307900964892 35.895366326894205, 134.56920710392964 46.41753186209837 M 135.4018388988414 47.40069966821352 C 124.67660369371461 45.594746290364135, 112.56432040947449 45.559737675121276, 105.65718988135856 45.338223862386045 M 133.42654017714318 46.680908432216604 C 124.49463821285714 45.89171693207044, 113.27969490846645 45.34719227313143, 103.05988737117018 45.429074683304066 M 102.07425821077494 46.028012927725655 C 102.73555465408968 35.23283988796771, 105.09278105980304 20.82328002658531, 104.97342640170747 3.026662906471967 M 103.27869006837567 45.107919018203766 C 104.64132235696587 33.87560301609601, 103.07045703139259 20.44489432272301, 104.21356718758658 2.9858044594491657"></path><path d="M 109.8070902374377 16.93703649684965 C 116.40886283408841 17.235492266946668, 121.23725689628085 16.78712845202721, 127.28533401506014 17.479726518226595 C 124.00181345520487 20.88825302806311, 121.59624728274292 25.810061021396805, 119.47324243061173 29.258685172558568 C 116.53659834191366 24.504453624867487, 112.0896889418084 19.929893698998043, 108.7391261806246 16.040982258137753 M 110.51623300124368 17.82902193636629 C 114.63962748563604 15.444094024835126, 118.4353086881481 16.692727769222053, 127.22725446954803 17.138859350726886 C 124.92840286230702 20.033386216727028, 124.0283607595734 22.88396712909863, 118.74066290921495 30.68280313289101 C 116.15524045508107 27.34543684714958, 114.05683167977186 23.753269432173877, 109.83112613116795 17.509533842661018" style="fill: currentcolor; pointer-events: auto; cursor: pointer;"></path></svg>
