<svg width="388" height="118"><path d="M 5.491277647120442 3.8483892638515425 C 152.90074706825004 6.9981380848637675, 307.03282696742605 7.892093709460386, 387.11873573562406 4.530474065558914 M 3.171544137320386 3.864118315857749 C 155.49939112521875 6.911516947334697, 305.8738394144653 5.783449311139222, 385.32473032159896 3.5155437822036055 M 385.8428036044923 3.643852437040902 C 386.34360393252587 47.55481979555503, 387.19666512868884 93.02994840654769, 387.3057164398447 115.4458036676188 M 386.84733041979354 4.1807915197597065 C 386.12457416838237 48.94072873066156, 385.9789139832951 93.44760334085416, 386.46651098822775 116.54002455801263 M 387.2266256050222 114.39490250830718 C 263.1988938279327 118.84345346307835, 137.73737551494082 119.68003494952686, 5.300181437298089 114.98785173095337 M 386.5097423042548 116.27689406252618 C 262.44402816061086 118.94049552287223, 139.37158466110492 117.97394875637545, 4.661589248536039 116.60585111800306 M 2.2400561474363245 116.39748776250406 C 4.958086386014775 71.67286330796327, 3.1313754693382423 26.10151625882908, 5.566345700847336 3.0656297435396667 M 3.869295944922274 115.04803904326326 C 3.057701771650045 72.28449320384793, 3.782473224810777 27.681402488922657, 3.8268307109751802 3.8092909815756393"></path></svg>
