<svg width="80" height="32"><path d="M 1.2215056192644296 2.8035803951709504 C 29.14673528205995 3.3192460519492313, 59.64422137326549 -0.2441980153583485, 76.31906059327032 2.6487313674811217 M 1.9323646808987704 1.9454571518342698 C 30.23219572347797 1.7542866222118632, 59.48358869574406 0.8559643622208635, 78.09838083610163 2.7620283466794473 M 76.71084550054016 1.7380608536393058 C 77.53863875829111 11.019626923568751, 78.95119369316915 21.104304552710623, 78.27150643668624 29.367831120344636 M 78.54085659385919 1.4487122789623492 C 77.71675349618783 11.29684636464927, 77.83920918339014 20.97866266245709, 78.26105200956422 29.97489773821571 M 79.62186443060786 30.22326304903523 C 57.37598422506426 29.269587902304327, 37.533371906637164 30.127229777143665, 0.06796256519350852 28.481930950334778 M 78.94522950478944 29.44315043010373 C 57.41352273812219 29.61274393466488, 36.76303760817098 31.46379170203609, 1.6429436362075038 29.686359406866035 M 0.9677403036625583 29.333302153015097 C 1.1074462841367425 21.156161211774418, 3.2143176464677503 9.66423060102073, 0.7421657784973563 3.753134057333366 M 1.9387121867432442 29.797183064110904 C 1.6388204957751822 19.146915001668113, 1.7506419500402295 7.733795976772625, 2.0950167912782542 1.9558817934551462"></path><path d="M 11.989284034201608 1.1566202226726432 C 14.639933540839625 0.3543817414387075, 18.419573388882533 1.561389613693568, 21.057024523470744 2.8543053352312935 C 23.694475658058956 4.147221056769019, 26.30495276596596 6.218453239782704, 27.81399084173087 8.914114551898995 C 29.32302891749578 11.609775864015287, 30.81272668265276 15.738230404530146, 30.111252978060193 19.028273207929043 C 29.409779273467628 22.31831601132794, 26.175706958233484 26.638737523750173, 23.605148614175466 28.65437137229238 C 21.034590270117448 30.67000522083459, 17.653242418422 31.4929641321993, 14.687902913712087 31.122076299182304 C 11.722563409002174 30.751188466165306, 7.94425517441658 28.750917198949715, 5.813111585915985 26.429044374190397 C 3.6819679974153905 24.10717154943108, 2.107373204665527 20.413353135388267, 1.9010413827085184 17.190839350626394 C 1.6947095607515097 13.968325565864523, 2.546296854646458 9.532138620706139, 4.575120654173933 7.093961665619169 C 6.603944453701407 4.655784710532199, 12.186792805644181 3.5674178255915825, 14.073984179873369 2.561777620104573 C 15.961175554102557 1.556137414617564, 16.045044742296632 1.081332467292025, 15.898268899549054 1.0601204326971132 M 12.203079833726317 1.4364749587184882 C 15.149651877183148 0.4400825449608693, 18.993066804074456 1.1519876978934356, 21.779514130938214 2.5453736205543773 C 24.565961457801972 3.938759543215319, 27.51408491829194 7.15907874623303, 28.92176379490887 9.796790494684139 C 30.3294426715258 12.434502243135247, 30.798236329664192 15.523479937289547, 30.2255873906398 18.37164411126103 C 29.652938451615405 21.219808285232514, 28.03432252080644 24.978619427473156, 25.4858701607625 26.885775538513037 C 22.937417800718556 28.79293164955292, 17.983206874313666 29.83188225273624, 14.934873230376141 29.814580777500332 C 11.886539586438616 29.797279302264425, 9.347067505440053 28.452337831478783, 7.195868297137347 26.781966687097587 C 5.04466908883464 25.11159554271639, 2.7191801691542463 23.00558081359248, 2.0276779805599023 19.79235391121315 C 1.3361757919655584 16.579127008833822, 1.6593003861321833 10.312284433519192, 3.046855165571282 7.502605272821605 C 4.434409945010381 4.692926112124018, 9.057054374289628 3.9409910576256983, 10.353006657194493 2.934278947027625 C 11.648958940099359 1.9275668364295522, 10.463706394425387 1.1833710562170598, 10.82256886300047 1.462332609233167" class="checked" style="transition: all 0.3s ease 0s; transform: translateX(48px);"></path></svg>
